<?xml version="1.0" encoding="UTF-8" standalone="no"?>
<svg
   width="224"
   height="224"
   version="1.1"
   viewBox="0 0 224 224"
   xml:space="preserve"
   id="svg8"
   sodipodi:docname="training.gbif-uat.org.svg"
   inkscape:version="1.1.2 (0a00cf5339, 2022-02-04)"
   xmlns:inkscape="http://www.inkscape.org/namespaces/inkscape"
   xmlns:sodipodi="http://sodipodi.sourceforge.net/DTD/sodipodi-0.dtd"
   xmlns="http://www.w3.org/2000/svg"
   xmlns:svg="http://www.w3.org/2000/svg"><defs
   id="defs12" /><sodipodi:namedview
   id="namedview10"
   pagecolor="#ffffff"
   bordercolor="#666666"
   borderopacity="1.0"
   inkscape:pageshadow="2"
   inkscape:pageopacity="0.0"
   inkscape:pagecheckerboard="0"
   showgrid="false"
   inkscape:zoom="2.0860136"
   inkscape:cx="117.20921"
   inkscape:cy="81.255464"
   inkscape:window-width="2560"
   inkscape:window-height="1358"
   inkscape:window-x="0"
   inkscape:window-y="439"
   inkscape:window-maximized="1"
   inkscape:current-layer="svg8"
   showguides="false"
   fit-margin-top="0"
   fit-margin-left="0"
   fit-margin-right="0"
   fit-margin-bottom="0" />
<g
   id="g1160"
   transform="translate(-0.439555,2.85215)"><path
     d="m 195.24111,218.2957 c 11.586,0 20.491,-1.6489 29.638,-5.0137 0,-33.712 -20.111,-57.803 -55.635,-75.161 -27.185,-13.633 -60.645,-20.691 -91.160004,-20.691 13.39,-40.189 3.6299,-90.057 -9.3462,-117.43 -14.376,28.678 -23.349,77.842 -9.5454,117.84 -27.107,1.9766 -48.603,13.784 -57.6980005,29.354 -0.68700999,1.1875 -2.06299999,3.7188 -1.23969999,4.1514 0.64795,0.34762 1.69679999,-0.71237 2.34469999,-1.3038 9.7944005,-9.0674 22.7640005,-13.485 35.2150005,-13.485 28.777,0 49.093,23.881 63.447004,38.228 30.85,30.846 61.002,43.574 93.98,43.51"
     fill="#47a138"
     id="path2"
     style="fill:#6b6f6a;fill-opacity:1" /><path
     d="m 158.77086,7.2930524 -0.58432,0.3845762 -3.27221,10.5161404 c -1.7968,5.79515 -3.33065,10.635493 -3.40368,10.754843 -0.11687,0.225441 -1.37317,0.238703 -23.12462,0.238703 h -23.00774 v 35.407437 35.407438 h 11.97864 c 6.58824,0 11.97863,0.0265 11.97863,0.053 0,0.0531 -2.98005,9.61439 -10.80999,34.69133 -1.53384,4.91992 -3.68124,11.81575 -4.77685,15.31671 -1.0956,3.50096 -2.01591,6.44495 -2.04513,6.52451 -0.0584,0.13262 0.7158,0.1724 3.57898,0.1724 h 3.63742 l 1.47542,-1.44547 1.49002,-1.44547 2.10357,-6.86932 c 2.00131,-6.52451 3.33065,-10.8344 11.14597,-36.22963 l 3.31603,-10.7681 h 9.29076 9.30535 l 0.073,7.98325 c 0.0438,4.40272 0.0584,15.21062 0.0438,24.04258 l -0.0292,16.04607 0.52588,0.50392 0.51129,0.49067 h 3.73967 3.73967 l 0.61354,-0.4774 0.61354,-0.47741 v -24.05584 -24.05584 l 9.7436,0.0265 9.7582,0.0397 2.93622,9.21655 c 7.65465,23.92323 13.38103,41.82586 13.76083,42.96633 0.39442,1.24655 0.45285,1.31286 1.94288,2.89095 l 1.51923,1.61786 h 3.62282 c 1.9867,0 3.60819,-0.0398 3.60819,-0.0796 0,-0.0663 -1.72375,-5.43709 -8.25357,-25.64719 -1.66532,-5.14535 -4.57232,-14.12319 -6.45677,-19.95812 -1.86984,-5.83494 -3.44751,-10.71506 -3.49134,-10.84768 -0.073,-0.21218 0.55511,-0.22543 11.68648,-0.22543 h 11.77412 V 64.594752 29.187315 h -23.15383 c -21.89753,0 -23.15382,-0.01327 -23.27069,-0.238703 -0.073,-0.11935 -1.6361,-4.853603 -3.44751,-10.502879 -1.82601,-5.649277 -3.34525,-10.3835291 -3.38908,-10.5028799 -0.0438,-0.1193507 -0.35059,-0.4110991 -0.67196,-0.6365383 L 164.48256,6.908478 h -2.55642 l -2.57103,0.013265 z"
     id="path945"
     style="fill:#000000;stroke:none;stroke-width:0.0139184" /></g></svg>
